<?xml version="1.0" encoding="UTF-8" standalone="no"?>
<svg width="74px" height="50px" viewBox="0 0 74 50" version="1.1" xmlns="http://www.w3.org/2000/svg" xmlns:xlink="http://www.w3.org/1999/xlink">
    <!-- Generator: Sketch 44 (41411) - http://www.bohemiancoding.com/sketch -->
    <title>Accessing building values</title>
    <desc>Created with Sketch.</desc>
    <defs></defs>
    <g id="Page-1" stroke="none" stroke-width="1" fill="none" fill-rule="evenodd">
        <g id="Accessing-building-values">
            <g id="Group-2" transform="translate(3.500000, 6.000000)">
                <path d="M21,10.5 L5,10.5" id="Path-2-Copy-3" stroke="#041E41" stroke-width="2" stroke-linecap="round"></path>
                <path d="M21,27.5 L5,27.5" id="Path-2-Copy-4" stroke="#041E41" stroke-width="2" stroke-linecap="round"></path>
                <path d="M16,18.5 L0,18.5" id="Path-2-Copy-5" stroke="#041E41" stroke-width="2" stroke-linecap="round"></path>
                <g id="Group" transform="translate(29.000000, 0.000000)">
                    <path d="M1,5.704297 L1,31.0063493 L21,31.0063493 L21,5.704297 L11,2.03017538 L1,5.704297 Z" id="Rectangle-3" stroke="#041E41" stroke-width="2"></path>
                    <rect id="Rectangle-3-Copy" stroke="#041E41" stroke-width="2" x="20.9958406" y="19.0063493" width="15.0529699" height="12"></rect>
                    <rect id="Rectangle-4" fill="#041E41" x="5" y="9" width="12.0017831" height="2"></rect>
                    <rect id="Rectangle-4-Copy-2" fill="#041E41" x="5" y="15" width="4" height="4"></rect>
                    <rect id="Rectangle-4-Copy-4" fill="#041E41" x="25" y="22" width="2" height="2"></rect>
                    <rect id="Rectangle-4-Copy-6" fill="#041E41" x="26.5145259" y="26.5" width="4.01559933" height="4.01559933"></rect>
                    <rect id="Rectangle-4-Copy-5" fill="#041E41" x="30" y="22" width="2" height="2"></rect>
                    <rect id="Rectangle-4-Copy-3" fill="#041E41" x="13.0017831" y="15" width="4" height="4"></rect>
                    <rect id="Rectangle-4-Copy-8" fill="#041E41" x="7.96171401" y="24" width="6" height="7"></rect>
                </g>
            </g>
        </g>
    </g>
</svg>