<?xml version="1.0" encoding="UTF-8" standalone="no"?>
<svg width="66px" height="50px" viewBox="0 0 66 50" version="1.1" xmlns="http://www.w3.org/2000/svg" xmlns:xlink="http://www.w3.org/1999/xlink">
    <!-- Generator: Sketch 44 (41411) - http://www.bohemiancoding.com/sketch -->
    <title>Creating submissions</title>
    <desc>Created with Sketch.</desc>
    <defs></defs>
    <g id="Page-1" stroke="none" stroke-width="1" fill="none" fill-rule="evenodd">
        <g id="Creating-submissions">
            <g id="Group-6-Copy" transform="translate(7.000000, 4.500000)">
                <g id="Group-7">
                    <path d="M27.0833333,18.25 L30.329,18.25 L30.329,23.6666667 L27.0833333,23.6666667 L27.0833333,18.25 L27.0833333,18.25 Z M39,19.3333333 L39,41 L13,41 L13,15 L34.6666667,15 L39,19.3333333 L39,19.3333333 Z M20.5833333,24.75 L31.4166667,24.75 L31.4166667,17.1666667 L20.5833333,17.1666667 L20.5833333,24.75 L20.5833333,24.75 Z M36.8333333,20.2314167 L33.7696667,17.1666667 L33.5833333,17.1666667 L33.5833333,26.9166667 L18.4166667,26.9166667 L18.4166667,17.1666667 L15.1666667,17.1666667 L15.1666667,38.8333333 L36.8333333,38.8333333 L36.8333333,20.2314167 L36.8333333,20.2314167 Z" id="Shape" fill="#041E41"></path>
                    <path d="M25,0.5 L25,7" id="Line" stroke="#041E41" stroke-width="2" stroke-linecap="round" stroke-linejoin="round"></path>
                    <path d="M39.2376328,3.39225555 L35.5093859,8.71674384" id="Line-Copy" stroke="#041E41" stroke-width="2" stroke-linecap="round" stroke-linejoin="round"></path>
                    <path d="M50.9792889,11.8218805 L46,16" id="Line-Copy-3" stroke="#041E41" stroke-width="2" stroke-linecap="round" stroke-linejoin="round" transform="translate(48.489644, 13.910940) rotate(15.000000) translate(-48.489644, -13.910940) "></path>
                    <path d="M0.564855252,12.5374309 L6.45585587,15.2844496" id="Line-Copy-4" stroke="#041E41" stroke-width="2" stroke-linecap="round" stroke-linejoin="round"></path>
                    <path d="M10.7623672,3.39225555 L14.4906141,8.71674384" id="Line-Copy-2" stroke="#041E41" stroke-width="2" stroke-linecap="round" stroke-linejoin="round"></path>
                </g>
            </g>
        </g>
    </g>
</svg>