<?xml version="1.0" encoding="UTF-8" standalone="no"?>
<svg width="30px" height="30px" viewBox="0 0 30 30" version="1.1" xmlns="http://www.w3.org/2000/svg" xmlns:xlink="http://www.w3.org/1999/xlink">
    <!-- Generator: Sketch 43 (38999) - http://www.bohemiancoding.com/sketch -->
    <title>Error Icon</title>
    <desc>Created with Sketch.</desc>
    <defs></defs>
    <g id="Page-1" stroke="none" stroke-width="1" fill="none" fill-rule="evenodd">
        <g id="Error-Icon" fill="#CD5234">
            <g id="Group-9" transform="translate(2.000000, 3.000000)">
                <g id="Group-6-Copy-2">
                    <path d="M12.7608414,21.074592 L20.0223516,21.074592 C20.6032536,21.074592 21.184626,21.082272 21.7650577,21.069312 C22.3718298,21.055392 22.7768149,20.718912 22.9508503,20.126592 C23.0745566,19.705152 22.9626095,19.338912 22.7500041,18.974592 C20.8153887,15.663552 18.8864178,12.349152 16.9565061,9.034752 C15.9400451,7.288512 14.9259361,5.540832 13.9104159,3.794112 C13.7340286,3.490272 13.518601,3.229632 13.1742931,3.115872 C12.5642284,2.913312 11.9805042,3.160992 11.6070336,3.800352 C10.3760858,5.909952 9.1512527,8.022432 7.92312708,10.133472 C6.19688387,13.100832 4.4645259,16.065312 2.75098257,19.040352 C2.60752094,19.289472 2.50639226,19.615392 2.52050323,19.898592 C2.55625105,20.613792 3.1296272,21.073152 3.9014978,21.073632 C6.8549259,21.076032 9.80788364,21.074592 12.7608414,21.074592 M12.7326194,23.592672 C9.82763901,23.592672 6.92218824,23.591232 4.01720784,23.593632 C3.15878989,23.594112 2.35117148,23.428512 1.62915967,22.919712 C0.0416744274,21.800352 -0.482313294,19.637472 0.489933223,17.938272 C2.28343877,14.804832 4.11222177,11.692512 5.92689379,8.572032 C7.12068269,6.520032 8.31682342,4.469472 9.50920123,2.416032 C10.7599044,0.261792 13.5054307,-0.174528 15.3074029,1.510752 C15.5529339,1.740672 15.7707134,2.019552 15.9414562,2.312352 C18.9541505,7.471392 21.9470893,12.642912 24.9677797,17.797152 C26.3581816,20.168832 24.851129,23.175552 22.2584716,23.548992 C21.9818964,23.588832 21.6987361,23.590752 21.4183979,23.590752 C18.5232952,23.593632 15.6277221,23.592672 12.7326194,23.592672" id="Fill-1"></path>
                    <path d="M11.4995549,11.296704 C11.4995549,10.200864 11.495792,9.104544 11.500966,8.008704 C11.5042586,7.326624 11.7935337,6.861024 12.3123474,6.672864 C13.1590062,6.365664 14.0164834,6.979584 14.0193056,7.911744 C14.0254204,10.133664 14.02495,12.355104 14.0174241,14.577024 C14.0146019,15.523104 13.449222,16.053504 12.5743413,15.960864 C11.9501656,15.895104 11.5000253,15.360384 11.4981438,14.673504 C11.495792,13.547904 11.4976735,12.422304 11.4976735,11.296704 L11.4995549,11.296704 Z" id="Fill-4"></path>
                    <path d="M12.2603249,16.774176 C13.1032208,16.407456 13.9987976,17.006496 14.0223159,17.950656 C14.0350158,18.456576 14.0293714,18.968736 13.6013384,19.338336 C13.1827126,19.699296 12.7090541,19.750176 12.2194031,19.533216 C11.7226966,19.313376 11.5260836,18.879936 11.498332,18.350496 C11.4950394,18.291456 11.4978616,18.231936 11.4978616,18.172896 C11.4785766,17.550816 11.6620194,17.034816 12.2603249,16.774176 Z" id="Fill-6"></path>
                </g>
            </g>
        </g>
    </g>
</svg>