<?xml version="1.0" encoding="UTF-8" standalone="no"?>
<svg width="65px" height="50px" viewBox="0 0 65 50" version="1.1" xmlns="http://www.w3.org/2000/svg" xmlns:xlink="http://www.w3.org/1999/xlink">
    <!-- Generator: Sketch 44 (41411) - http://www.bohemiancoding.com/sketch -->
    <title>loading prometrics record</title>
    <desc>Created with Sketch.</desc>
    <defs></defs>
    <g id="Page-1" stroke="none" stroke-width="1" fill="none" fill-rule="evenodd">
        <g id="loading-prometrics-record">
            <g id="Group-26" transform="translate(2.500000, 2.000000)">
                <path d="M22.6352944,33.0947372 L22.6352944,15.9329733 L36.3647056,15.9329733 L36.3647056,25.8378854 C36.3647056,29.3620536 31.2161764,27.9462081 31.2161764,27.9462081 C31.2161764,27.9462081 32.5187543,33.0947372 28.9525397,33.0947372 L22.6352944,33.0947372 L22.6352944,33.0947372 Z M38.0808819,26.5612537 L38.0808819,14.2167969 L20.9191181,14.2167969 L20.9191181,34.8109136 L29.6621787,34.8109136 C32.3763116,34.8109136 38.0808819,28.6129426 38.0808819,26.5612537 L38.0808819,26.5612537 Z M33.790441,25.3719435 L25.209559,25.3719435 L25.209559,24.5138553 L33.790441,24.5138553 L33.790441,25.3719435 L33.790441,25.3719435 Z M33.790441,21.9395907 L25.209559,21.9395907 L25.209559,22.7976789 L33.790441,22.7976789 L33.790441,21.9395907 L33.790441,21.9395907 Z M33.790441,19.3653261 L25.209559,19.3653261 L25.209559,20.2234143 L33.790441,20.2234143 L33.790441,19.3653261 L33.790441,19.3653261 Z" id="Shape" fill="#041E41"></path>
                <g id="Page-1" transform="translate(0.500000, 0.000000)" stroke="#041E41" stroke-width="2.2">
                    <g id="Group-20" transform="translate(0.000000, 0.239500)">
                        <path d="M50.762,26.3211 C49.11,36.8481 40,44.9001 29.009,44.9001 C17.757,44.9001 8.476,36.4591 7.152,25.5641" id="Stroke-10"></path>
                        <path d="M7.286,19.2594 C9.013,8.8214 18.082,0.8604 29.009,0.8604 C40.251,0.8604 49.526,9.2854 50.864,20.1654" id="Stroke-12"></path>
                        <polyline id="Stroke-16" points="13.2328 20.1769 6.9898 25.5839 0.7468 20.1769"></polyline>
                        <polyline id="Stroke-18" points="44.7863 25.5835 51.0293 20.1765 57.2723 25.5835"></polyline>
                    </g>
                </g>
            </g>
        </g>
    </g>
</svg>