<?xml version="1.0" encoding="UTF-8" standalone="no"?>
<svg width="90px" height="50px" viewBox="0 0 90 50" version="1.1" xmlns="http://www.w3.org/2000/svg" xmlns:xlink="http://www.w3.org/1999/xlink">
    <!-- Generator: Sketch 44 (41411) - http://www.bohemiancoding.com/sketch -->
    <title>Loading MVR Icon</title>
    <desc>Created with Sketch.</desc>
    <defs></defs>
    <g id="Page-1" stroke="none" stroke-width="1" fill="none" fill-rule="evenodd">
        <g id="Loading-MVR-Icon" fill="#041E41">
            <g id="Group-14" transform="translate(2.000000, 12.000000)">
                <circle id="Oval-2-Copy-3" opacity="0.5" cx="7.5" cy="16.5" r="2.5"></circle>
                <g id="Group-13" opacity="0.895464086">
                    <circle id="Oval-2-Copy-2" cx="11.5" cy="10.5" r="2.5"></circle>
                    <circle id="Oval-2-Copy-12" cx="2.5" cy="10.5" r="2.5"></circle>
                    <path d="M82.3010265,15.2316345 C82.2905448,15.1836936 82.2816504,15.1370048 82.2616448,15.0933264 C82.0389836,14.2941777 81.7529326,13.570864 81.3756387,13.0410242 C79.2923498,10.1155308 74.2765476,8.77588945 70.3765625,8.16587 C69.1304629,7.36475764 59.7533159,1.41221711 55.3802783,0.829257179 C50.8706021,0.227920036 40.0469166,0.198192193 33.348717,1.5204552 C32.9782307,1.59361511 32.7370281,1.95341438 32.810188,2.32423587 C32.8830195,2.69439371 33.2404789,2.9379294 33.6139687,2.86276482 C35.3746233,2.51536983 37.4614632,2.26731851 39.648112,2.09756534 C37.0538941,4.37019569 35.4399425,7.03732033 35.3598449,7.17166008 C35.2422472,7.36843172 35.2312249,7.61063325 35.329775,7.81709295 C35.428325,8.0238879 35.6237625,8.16720416 35.850262,8.19960717 C38.3333134,8.55443925 68.3022432,9.44988021 70.0640267,9.50220669 C71.9049431,9.78545933 74.014881,10.2331627 75.8903761,10.9350545 C75.8733399,11.5801111 75.9585689,13.0998984 77.0025943,14.3429122 C78.0403115,15.5782768 80.0990109,15.9238382 81.0913325,16.0204657 C81.471842,17.7121339 81.6032192,19.7874521 81.6275215,21.0922205 C80.6299317,21.0922616 78.6895416,21.0923847 76.1537463,21.092761 C76.2213986,20.760856 76.2572704,20.4175113 76.2572704,20.0659428 C76.2572704,17.2363311 73.9554938,14.9345544 71.125882,14.9345544 C68.2962702,14.9345544 65.9944936,17.2363311 65.9944936,20.0659428 C65.9944936,20.4183529 66.0303654,20.7625322 66.0983461,21.095142 C55.6780972,21.0986108 43.284419,21.1061231 38.6875503,21.122742 C38.7592939,20.7814841 38.7981283,20.4282394 38.7981283,20.065936 C38.7981283,17.2363242 36.4963516,14.9345476 33.6667399,14.9345476 C30.8371281,14.9345476 28.5353515,17.2363242 28.5353515,20.065936 C28.5353515,20.1530054 28.5441227,20.237817 28.5484194,20.3238396 C27.5233117,20.1121185 26.7569833,19.8719627 26.5435928,19.6159337 C26.4493395,19.2636947 26.0499943,17.4229015 26.9800619,14.6416411 C27.0147227,14.6428521 27.0499651,14.6469025 27.0844617,14.6469025 C29.8813352,14.6465672 31.8994829,10.7382282 32.1273234,10.2775389 C32.2245392,10.0814378 32.2218641,9.85059375 32.1203105,9.65682568 C32.01875,9.46272921 31.8306675,9.32910101 31.6138561,9.29736166 C31.1699979,9.23188515 30.5946324,9.20256782 30.0775321,9.18924673 C31.1910023,7.79774419 32.6240144,6.31545029 34.4758777,4.76931508 C34.7658559,4.52711354 34.8046082,4.09581693 34.5623998,3.80551034 C34.3205267,3.51553216 33.8892369,3.47677992 33.598595,3.71898829 C22.9145586,12.6394691 25.1628867,19.8113849 25.2637767,20.1123853 C25.2731295,20.1401153 25.2841585,20.1675101 25.2971854,20.1938991 C25.6524759,20.9255256 27.0864869,21.4265544 28.8321578,21.7694406 C29.5368069,23.7629098 31.4349349,25.1973381 33.6667604,25.1973381 C35.6188432,25.1973381 37.3189474,24.1014035 38.1861657,22.4928774 C42.3197591,22.4748765 55.650593,22.4669468 66.5922525,22.4633959 C67.4546199,24.087624 69.1622023,25.1973381 71.1258957,25.1973381 C73.0904648,25.1973381 74.7985467,24.086584 75.6605447,22.461227 C79.5886362,22.4605976 82.2087368,22.4605976 82.3150591,22.4605976 C82.6895547,22.4605976 82.9945644,22.1595972 82.9992442,21.7847664 C83.0015431,21.586989 83.0323998,17.9814497 82.3010265,15.2316345 Z M30.3864759,10.5678729 C29.7276809,11.5980368 28.6653261,12.9070676 27.5473403,13.2100316 C27.926892,12.3814835 28.4249993,11.4905923 29.0691732,10.5485447 C29.3559015,10.54628 29.8669468,10.5465332 30.3864759,10.5678729 Z M33.6667604,23.8289678 C31.5918254,23.8289678 29.9037423,22.1408847 29.9037423,20.0659497 C29.9037423,17.9910146 31.5918254,16.3029315 33.6667604,16.3029315 C35.7416955,16.3029315 37.4297786,17.9910146 37.4297786,20.0659497 C37.4297786,22.1408847 35.7416955,23.8289678 33.6667604,23.8289678 Z M71.1258957,23.8289678 C69.0509606,23.8289678 67.3628775,22.1408847 67.3628775,20.0659497 C67.3628775,17.9910146 69.0509606,16.3029315 71.1258957,16.3029315 C73.2008307,16.3029315 74.8889138,17.9910146 74.8889138,20.0659497 C74.8889138,22.1408847 73.2008307,23.8289678 71.1258957,23.8289678 Z M55.1992155,2.18559944 C58.2730403,2.59550843 64.3711139,6.09018234 67.6130156,8.05892502 C63.012678,7.91790079 53.0735413,7.60579606 45.5351828,7.3179457 C45.6783759,6.3366874 46.0971793,3.98980929 46.5050426,1.81331379 C50.0537535,1.78375016 53.2744796,1.92915318 55.1992155,2.18559944 Z M42.0768392,1.94064064 C43.0898778,1.88969622 44.1068438,1.85453595 45.1089423,1.83336042 C44.8359593,3.29602505 44.3236552,6.08680247 44.1643427,7.26479135 C41.1200884,7.14486054 38.5849157,7.03131318 37.1568297,6.93915345 C38.0373349,5.6957633 39.7976133,3.47579469 42.0768392,1.94064064 Z M78.0502596,13.4629612 C77.5214187,12.8331072 77.3437358,12.0811878 77.2858948,11.5321771 C78.5350869,12.1419502 79.5931381,12.8966612 80.2611628,13.8347884 C80.4072773,14.0399961 80.5370672,14.2941435 80.6547881,14.5788124 C79.7432688,14.4290648 78.590458,14.1058899 78.0502596,13.4629612 Z" id="Shape" stroke="#042447"></path>
                </g>
            </g>
        </g>
    </g>
</svg>