<?xml version="1.0" encoding="UTF-8" standalone="no"?>
<svg width="90px" height="50px" viewBox="0 0 90 50" version="1.1" xmlns="http://www.w3.org/2000/svg" xmlns:xlink="http://www.w3.org/1999/xlink">
    <!-- Generator: Sketch 44 (41411) - http://www.bohemiancoding.com/sketch -->
    <title>Retrieving payment method</title>
    <desc>Created with Sketch.</desc>
    <defs></defs>
    <g id="Page-1" stroke="none" stroke-width="1" fill="none" fill-rule="evenodd">
        <g id="Retrieving-payment-method">
            <g id="Group-23" transform="translate(5.000000, 12.500000)">
                <path d="M21,4 L5,4" id="Path-2" stroke="#041E41" stroke-width="2" stroke-linecap="round"></path>
                <path d="M21,20 L5,20" id="Path-2-Copy-2" stroke="#041E41" stroke-width="2" stroke-linecap="round"></path>
                <path d="M16,12 L0,12" id="Path-2-Copy" stroke="#041E41" stroke-width="2" stroke-linecap="round"></path>
                <rect id="Rectangle-22" stroke="#041E41" stroke-width="2" x="31.4140815" y="1" width="44.2175958" height="19.2747663"></rect>
                <path d="M55.6504306,12.8958081 C55.6504306,12.0604925 54.9846818,11.6894939 54.1027068,11.4112451 L54.1027068,14.3815092 C55.0467045,14.2267368 55.6504306,13.6543066 55.6504306,12.8958081 M51.5967599,8.30100303 C51.5967599,9.07429592 52.1225308,9.41513657 52.9584154,9.67802201 L52.9584154,6.8619613 C52.1378942,7.04802956 51.5967599,7.58916388 51.5967599,8.30100303 M49.83281,13.7624196 C49.83281,13.2207163 50.4826264,12.8810137 50.5292857,12.9424674 C50.9930338,13.6230107 51.8442819,14.2113733 52.9117561,14.3815092 L52.9117561,11.1164947 C51.5347371,10.7762231 50.080332,10.173066 50.080332,8.3317299 C50.080332,6.87732473 51.2251924,5.79448708 52.8810292,5.54696507 L52.8810292,4.7884666 C52.8810292,4.26269572 53.0818919,4.06183304 53.5001188,4.06183304 L53.6076628,4.06183304 C54.0412531,4.06183304 54.2267523,4.26269572 54.2267523,4.7884666 L54.2267523,5.51566919 C55.9907023,5.67044157 57.0120862,6.55298555 57.0120862,7.24889225 C57.0120862,7.80595902 56.3309739,8.14566164 56.300247,8.09957133 C55.8518623,7.46511837 55.062637,6.97007436 54.1493661,6.83123443 L54.1493661,9.97163432 C55.6191347,10.3272694 57.2129489,10.9309955 57.2129489,12.8343544 C57.2129489,14.3661457 56.0214291,15.4950737 54.1954564,15.7118688 L54.1954564,16.4697983 C54.1954564,16.9961382 53.9945938,17.2129333 53.5615725,17.2129333 L53.4688229,17.2129333 C53.0352326,17.2129333 52.8497334,17.0115016 52.8497334,16.4697983 L52.8497334,15.7118688 C50.9776704,15.5110061 49.83281,14.5203491 49.83281,13.7624196" id="Fill-14" fill="#041E41"></path>
                <polyline id="Path-7" stroke="#041E41" stroke-width="2" points="34.6956008 22.2221031 34.6956008 24.3412164 79.730297 24.3412164 79.730297 5.09097588 77.5865587 5.09097588"></polyline>
            </g>
        </g>
    </g>
</svg>