<?xml version="1.0" encoding="UTF-8" standalone="no"?>
<svg width="66px" height="50px" viewBox="0 0 66 50" version="1.1" xmlns="http://www.w3.org/2000/svg" xmlns:xlink="http://www.w3.org/1999/xlink">
    <!-- Generator: Sketch 44 (41411) - http://www.bohemiancoding.com/sketch -->
    <title>Retrieving bank acc. info</title>
    <desc>Created with Sketch.</desc>
    <defs></defs>
    <g id="Page-1" stroke="none" stroke-width="1" fill="none" fill-rule="evenodd">
        <g id="Retrieving-bank-acc.-info">
            <g id="Group-19" transform="translate(4.500000, 7.500000)">
                <path d="M21.6182352,10 L5.61823517,10" id="Path-2-Copy-3" stroke="#041E41" stroke-width="2" stroke-linecap="round"></path>
                <path d="M21.6182352,27 L5.61823517,27" id="Path-2-Copy-4" stroke="#041E41" stroke-width="2" stroke-linecap="round"></path>
                <path d="M16.6182352,18 L0.618235169,18" id="Path-2-Copy-5" stroke="#041E41" stroke-width="2" stroke-linecap="round"></path>
                <rect id="Rectangle-22" stroke="#041E41" stroke-width="2" x="31.6182352" y="1.67876903" width="23.7635297" height="31.9172283"></rect>
                <polygon id="Path-Copy-2" fill="#041E41" points="50.0709285 22.7579379 36.9290715 22.7579379 36.9290715 24.0721236 50.0709285 24.0721236"></polygon>
                <polygon id="Path-Copy-3" fill="#041E41" points="50.0709285 26.0721236 36.9290715 26.0721236 36.9290715 27.3863093 50.0709285 27.3863093"></polygon>
                <path d="M42.0335752,14.5183523 C42.0335752,13.7854286 41.4494331,13.4599067 40.6755695,13.2157652 L40.6755695,15.8219379 C41.5038532,15.6861373 42.0335752,15.1838749 42.0335752,14.5183523 M38.4767986,10.4867729 C38.4767986,11.1652765 38.9381211,11.4643373 39.671544,11.6949986 L39.671544,9.22412718 C38.9516013,9.38738743 38.4767986,9.86219015 38.4767986,10.4867729 M36.9290715,15.2787356 C36.9290715,14.8034336 37.4992342,14.5053714 37.540174,14.5592922 C37.9470765,15.1564153 38.6939796,15.6726571 39.6306041,15.8219379 L39.6306041,12.957145 C38.4223785,12.6585835 37.1462525,12.1293607 37.1462525,10.5137333 C37.1462525,9.23760739 38.1507773,8.28750267 39.6036437,8.07032161 L39.6036437,7.40479897 C39.6036437,6.94347645 39.7798849,6.76723527 40.146846,6.76723527 L40.2412074,6.76723527 C40.6216487,6.76723527 40.7844097,6.94347645 40.7844097,7.40479897 L40.7844097,8.04286194 C42.3321368,8.17866251 43.2283207,8.95302531 43.2283207,9.56362861 C43.2283207,10.0524108 42.6306983,10.3504731 42.6037379,10.3100325 C42.2103157,9.75334999 41.5178326,9.31898788 40.7165094,9.19716678 L40.7165094,11.9526202 C42.0061156,12.264662 43.4045619,12.7943841 43.4045619,14.4644315 C43.4045619,15.8084577 42.3590972,16.799003 40.75695,16.9892237 L40.75695,17.6542471 C40.75695,18.1160689 40.5807088,18.3062895 40.2007668,18.3062895 L40.1193863,18.3062895 C39.738945,18.3062895 39.576184,18.1295491 39.576184,17.6542471 L39.576184,16.9892237 C37.9335963,16.8129825 36.9290715,15.943759 36.9290715,15.2787356" id="Fill-14" fill="#041E41"></path>
            </g>
        </g>
    </g>
</svg>