<?xml version="1.0" encoding="UTF-8" standalone="no"?>
<svg width="65px" height="50px" viewBox="0 0 65 50" version="1.1" xmlns="http://www.w3.org/2000/svg" xmlns:xlink="http://www.w3.org/1999/xlink">
    <!-- Generator: Sketch 44 (41411) - http://www.bohemiancoding.com/sketch -->
    <title>Saving Progress Bar Icon</title>
    <desc>Created with Sketch.</desc>
    <defs></defs>
    <g id="Page-1" stroke="none" stroke-width="1" fill="none" fill-rule="evenodd">
        <g id="Saving-Progress-Bar-Icon">
            <g id="Group-6" transform="translate(4.000000, 12.000000)">
                <path d="M44.0833333,3.25 L47.329,3.25 L47.329,8.66666667 L44.0833333,8.66666667 L44.0833333,3.25 L44.0833333,3.25 Z M56,4.33333333 L56,26 L30,26 L30,0 L51.6666667,0 L56,4.33333333 L56,4.33333333 Z M37.5833333,9.75 L48.4166667,9.75 L48.4166667,2.16666667 L37.5833333,2.16666667 L37.5833333,9.75 L37.5833333,9.75 Z M53.8333333,5.23141667 L50.7696667,2.16666667 L50.5833333,2.16666667 L50.5833333,11.9166667 L35.4166667,11.9166667 L35.4166667,2.16666667 L32.1666667,2.16666667 L32.1666667,23.8333333 L53.8333333,23.8333333 L53.8333333,5.23141667 L53.8333333,5.23141667 Z" id="Shape" fill="#041E41"></path>
                <path d="M21,4 L5,4" id="Path-2" stroke="#041E41" stroke-width="2" stroke-linecap="round"></path>
                <path d="M21,21 L5,21" id="Path-2-Copy-2" stroke="#041E41" stroke-width="2" stroke-linecap="round"></path>
                <path d="M16,12 L0,12" id="Path-2-Copy" stroke="#041E41" stroke-width="2" stroke-linecap="round"></path>
            </g>
        </g>
    </g>
</svg>