<?xml version="1.0" encoding="UTF-8" standalone="no"?>
<svg width="51px" height="50px" viewBox="0 0 51 50" version="1.1" xmlns="http://www.w3.org/2000/svg" xmlns:xlink="http://www.w3.org/1999/xlink">
    <!-- Generator: Sketch 44 (41411) - http://www.bohemiancoding.com/sketch -->
    <title>Searching business info.</title>
    <desc>Created with Sketch.</desc>
    <defs>
        <path d="M0.694159093,24.096023 C5.36370998,24.096023 9.14912891,20.310604 9.14912891,15.6410532 C9.14912891,10.9715023 5.36370998,7.18608333 0.694159093,7.18608333 L0.694159093,0.80426096 L25.5728908,0.80426096 L25.5728908,33.5427424 L0.697997887,33.5427424 L0.694159093,24.096023 Z" id="path-1"></path>
    </defs>
    <g id="Page-1" stroke="none" stroke-width="1" fill="none" fill-rule="evenodd">
        <g id="Searching-business-info.">
            <g id="Group-3" transform="translate(4.000000, 8.000000)">
                <g id="Group-2">
                    <g id="Group" transform="translate(0.102880, 7.666435)">
                        <circle id="Oval-3" stroke="#041E41" stroke-width="2" cx="17.862163" cy="8.07313267" r="7.91143597"></circle>
                        <path d="M21.3188764,4.26311905 C20.4231461,3.459558 19.2392414,2.97077144 17.9411746,2.97077144 C15.1466129,2.97077144 12.8811731,5.23621128 12.8811731,8.03077294 C12.8811731,8.3891777 12.9184357,8.73887932 12.989298,9.07621504" id="Oval-3-Copy" stroke="#041E41" stroke-linecap="round" stroke-linejoin="round"></path>
                        <rect id="Rectangle-2" fill="#041E41" transform="translate(5.835024, 18.609918) rotate(-39.000000) translate(-5.835024, -18.609918) " x="-0.267411743" y="17.2705798" width="12.2048718" height="2.67867724" rx="1.33933862"></rect>
                    </g>
                    <g id="Doc" transform="translate(16.000000, 0.000000)">
                        <mask id="mask-2" fill="white">
                            <use xlink:href="#path-1"></use>
                        </mask>
                        <g id="Mask"></g>
                        <path d="M3.74792343,28.2929759 L3.74792343,4.76107326 L22.5734455,4.76107326 L22.5734455,18.3425109 C22.5734455,23.1747871 15.5138748,21.2334051 15.5138748,21.2334051 C15.5138748,21.2334051 17.2999462,28.2929759 12.4100168,28.2929759 L3.74792343,28.2929759 L3.74792343,28.2929759 Z M24.9266358,19.3343806 L24.9266358,2.40788299 L1.39473317,2.40788299 L1.39473317,30.6461662 L13.383061,30.6461662 C17.1046314,30.6461662 24.9266358,22.1476195 24.9266358,19.3343806 L24.9266358,19.3343806 Z M19.0436602,17.7036197 L7.27770883,17.7036197 L7.27770883,16.5270246 L19.0436602,16.5270246 L19.0436602,17.7036197 L19.0436602,17.7036197 Z M19.0436602,12.9972392 L7.27770883,12.9972392 L7.27770883,14.1738343 L19.0436602,14.1738343 L19.0436602,12.9972392 L19.0436602,12.9972392 Z M19.0436602,9.46745379 L7.27770883,9.46745379 L7.27770883,10.6440489 L19.0436602,10.6440489 L19.0436602,9.46745379 L19.0436602,9.46745379 Z" id="Shape" fill="#041E41" mask="url(#mask-2)"></path>
                    </g>
                </g>
            </g>
        </g>
    </g>
</svg>