<?xml version="1.0" encoding="UTF-8" standalone="no"?>
<svg width="90px" height="50px" viewBox="0 0 90 50" version="1.1" xmlns="http://www.w3.org/2000/svg" xmlns:xlink="http://www.w3.org/1999/xlink">
    <!-- Generator: Sketch 44 (41411) - http://www.bohemiancoding.com/sketch -->
    <title>Sending Mail Icon</title>
    <desc>Created with Sketch.</desc>
    <defs></defs>
    <g id="Page-1" stroke="none" stroke-width="1" fill="none" fill-rule="evenodd">
        <g id="Sending-Mail-Icon" stroke="#041E41">
            <g id="Group-5" transform="translate(8.000000, 12.000000)">
                <path d="M54.2018376,21.5112597 L49.1658207,13.5516045 C49.1658207,13.5516045 54.4131688,10.848117 54.4135551,10.848117 L72.5787597,1.49044753 L54.2018376,21.5112597 Z M46.8863808,16.8659377 L48.80961,13.9152938 L49.6020051,15.1678323 L46.8863808,16.8659377 Z M46.4347426,11.080802 L70.2730482,2.12414288 L48.6971833,13.2397075 C48.6577761,13.2652229 48.6519809,13.269412 48.6469584,13.2743628 C48.6156644,13.3074947 48.6094829,13.315492 48.6044604,13.3238702 L46.7009348,16.2432864 L46.4347426,11.080802 Z M46.2404107,10.6283801 L41.4099298,6.86657562 L70.5527625,1.49463663 L46.2404107,10.6283801 Z M74.0669635,0.00674738521 L40.1446474,6.09159364 C39.9843139,6.12015563 39.8560472,6.2389735 39.8162535,6.39435072 C39.7768463,6.5504896 39.8336391,6.71462583 39.9615195,6.81440238 L45.5828502,11.1916225 L45.9193574,17.7174659 C45.9270843,17.8625608 46.0124667,17.9928034 46.1434379,18.0590673 C46.2744091,18.1253311 46.4316519,18.1184762 46.5560552,18.0407876 L49.7379988,16.0502073 L53.9425996,22.6952494 C54.0121419,22.8045466 54.129591,22.8753803 54.2597895,22.8856627 C54.4127824,22.8875668 54.5259817,22.8376785 54.6047962,22.7497076 L74.4502185,0.680048685 C74.5688266,0.549806013 74.5885303,0.360154402 74.5023752,0.208204618 C74.4154474,0.0566356603 74.2396601,-0.0248612165 74.0669635,0.00674738521 Z" id="Fill-1" stroke-width="0.5" fill="#041E41"></path>
                <path d="M43.2352941,20.5882353 C43.2352941,20.5882353 28.1372549,29.3823529 20.5882353,23.2941176 C13.0392157,17.2058824 10.2941176,12.4705882 0,13.1470588" id="Path-3" stroke-width="2" stroke-linecap="round" stroke-linejoin="round" stroke-dasharray="4,6"></path>
            </g>
        </g>
    </g>
</svg>