<?xml version="1.0" encoding="UTF-8" standalone="no"?>
<svg width="90px" height="50px" viewBox="0 0 90 50" version="1.1" xmlns="http://www.w3.org/2000/svg" xmlns:xlink="http://www.w3.org/1999/xlink">
    <!-- Generator: Sketch 44 (41411) - http://www.bohemiancoding.com/sketch -->
    <title>Updating modifiers</title>
    <desc>Created with Sketch.</desc>
    <defs>
        <path d="M0.186,3.052 C0.186,4.433 1.305,5.551 2.686,5.551 C4.066,5.551 5.186,4.433 5.186,3.052 C5.186,1.672 4.066,0.552 2.686,0.552 C1.305,0.552 0.186,1.672 0.186,3.052 Z" id="path-1"></path>
        <path d="M0.093,3.052 C0.093,4.433 1.212,5.551 2.593,5.551 C3.974,5.551 5.092,4.433 5.092,3.052 C5.092,1.672 3.974,0.552 2.593,0.552 C1.212,0.552 0.093,1.672 0.093,3.052 Z" id="path-3"></path>
        <path d="M0,3.052 C0,4.433 1.119,5.551 2.5,5.551 C3.88,5.551 5,4.433 5,3.052 C5,1.672 3.88,0.552 2.5,0.552 C1.119,0.552 0,1.672 0,3.052 Z" id="path-5"></path>
    </defs>
    <g id="Page-1" stroke="none" stroke-width="1" fill="none" fill-rule="evenodd">
        <g id="Updating-modifiers">
            <g id="Page-1-Copy" transform="translate(4.500000, 3.500000)">
                <g id="Group-3" transform="translate(20.000000, 33.239500)">
                    <mask id="mask-2" fill="white">
                        <use xlink:href="#path-1"></use>
                    </mask>
                    <g id="Clip-2"></g>
                    <polygon id="Fill-1" fill="#041E41" mask="url(#mask-2)" points="-4.814 10.552 10.186 10.552 10.186 -4.448 -4.814 -4.448"></polygon>
                </g>
                <g id="Group-6" transform="translate(10.000000, 33.239500)">
                    <mask id="mask-4" fill="white">
                        <use xlink:href="#path-3"></use>
                    </mask>
                    <g id="Clip-5"></g>
                    <polygon id="Fill-4" fill="#041E41" mask="url(#mask-4)" points="-4.907 10.552 10.093 10.552 10.093 -4.448 -4.907 -4.448"></polygon>
                </g>
                <g id="Group-9" transform="translate(0.000000, 33.239500)">
                    <mask id="mask-6" fill="white">
                        <use xlink:href="#path-5"></use>
                    </mask>
                    <g id="Clip-8"></g>
                    <polygon id="Fill-7" fill="#041E41" mask="url(#mask-6)" points="-5 10.552 10 10.552 10 -4.448 -5 -4.448"></polygon>
                </g>
                <g id="Group-20" transform="translate(26.000000, 0.239500)">
                    <path d="M48.1363793,24.9596638 C46.5698276,34.9421638 37.9310345,42.577681 27.5085345,42.577681 C16.8385345,42.577681 8.03758621,34.5732845 6.78206897,24.241819" id="Stroke-10" stroke="#231F1F" stroke-width="2.2"></path>
                    <path d="M6.90913793,18.2632241 C8.54681034,8.36512069 17.1467241,0.815896552 27.5085345,0.815896552 C38.1690517,0.815896552 46.9643103,8.80512069 48.2331034,19.1223621" id="Stroke-12" stroke="#231F1F" stroke-width="2.2"></path>
                    <path d="M31.177319,24.9583362 C31.177319,23.5662672 30.0678362,22.9479914 28.5980086,22.4842845 L28.5980086,27.4342845 C30.1711983,27.1763534 31.177319,26.2223879 31.177319,24.9583362 M24.4218017,17.3010086 C24.4218017,18.5897155 25.2980086,19.1577328 26.6910259,19.5958362 L26.6910259,14.902819 C25.3236121,15.2129052 24.4218017,16.1147155 24.4218017,17.3010086 M21.4821466,26.4025603 C21.4821466,25.4998017 22.5650776,24.933681 22.6428362,25.0360948 C23.415681,26.1702328 24.8343017,27.15075 26.6132672,27.4342845 L26.6132672,21.9930776 C24.3184397,21.4260086 21.8946466,20.4208362 21.8946466,17.3522155 C21.8946466,14.9284224 23.8025776,13.1238534 26.5620603,12.7113534 L26.5620603,11.4473017 C26.5620603,10.5710948 26.8968017,10.2363534 27.5937845,10.2363534 L27.7730086,10.2363534 C28.4955948,10.2363534 28.8047328,10.5710948 28.8047328,11.4473017 L28.8047328,12.6591983 C31.7443879,12.9171293 33.4465431,14.3879052 33.4465431,15.5476466 C33.4465431,16.4760086 32.3114569,17.0421293 32.26025,16.965319 C31.5130086,15.9079914 30.19775,15.0829914 28.6757672,14.8516121 L28.6757672,20.0851466 C31.1251638,20.677819 33.7812845,21.6839397 33.7812845,24.8559224 C33.7812845,27.408681 31.7955948,29.2900603 28.7525776,29.6513534 L28.7525776,30.9144569 C28.7525776,31.7916121 28.4178362,32.1529052 27.6961983,32.1529052 L27.5416293,32.1529052 C26.8190431,32.1529052 26.5099052,31.8172155 26.5099052,30.9144569 L26.5099052,29.6513534 C23.3900776,29.3166121 21.4821466,27.6656638 21.4821466,26.4025603" id="Fill-14" fill="#000000"></path>
                    <polyline id="Stroke-16" stroke="#231F1F" stroke-width="2.2" points="12.5483448 19.1332672 6.62825862 24.2605948 0.708172414 19.1332672"></polyline>
                    <polyline id="Stroke-18" stroke="#231F1F" stroke-width="2.2" points="42.4697672 24.2602155 48.3898534 19.1328879 54.3099397 24.2602155"></polyline>
                </g>
            </g>
        </g>
    </g>
</svg>