<?xml version="1.0" encoding="UTF-8" standalone="no"?>
<svg width="30px" height="30px" viewBox="0 0 30 30" version="1.1" xmlns="http://www.w3.org/2000/svg" xmlns:xlink="http://www.w3.org/1999/xlink">
    <!-- Generator: Sketch 43 (38999) - http://www.bohemiancoding.com/sketch -->
    <title>Warning Icon</title>
    <desc>Created with Sketch.</desc>
    <defs>
        <polygon id="path-1" points="0.000158490566 25.2960312 27.8209057 25.2960312 27.8209057 0.516724138 0.000158490566 0.516724138"></polygon>
    </defs>
    <g id="Page-1" stroke="none" stroke-width="1" fill="none" fill-rule="evenodd">
        <g id="Warning-Icon">
            <g id="Group-18" transform="translate(1.000000, 2.000000)">
                <g id="Page-1-Copy-5">
                    <g id="Group-3" transform="translate(0.000000, 0.010277)">
                        <mask id="mask-2" fill="white">
                            <use xlink:href="#path-1"></use>
                        </mask>
                        <g id="Clip-2"></g>
                        <path d="M8.34363019,3.15172739 C8.29502642,3.15172739 8.24959245,3.17807742 8.22529057,3.22023748 L2.65857358,12.8385264 C2.6342717,12.8806864 2.6342717,12.9328595 2.65857358,12.9750195 L8.22529057,22.5933084 C8.24959245,22.6354684 8.29502642,22.6612915 8.34363019,22.6612915 L19.4775925,22.6612915 C19.5261962,22.6612915 19.5716302,22.6349414 19.5959321,22.5927814 L25.1626491,12.9750195 C25.1869509,12.9328595 25.1869509,12.8806864 25.1626491,12.8385264 L19.5959321,3.22076448 C19.5711019,3.17807742 19.5261962,3.15172739 19.4775925,3.15172739 L8.34363019,3.15172739 Z M8.34363019,25.2962947 C7.35412075,25.2962947 6.43223396,24.7650781 5.9377434,23.91081 L0.371026415,14.2925211 C-0.123464151,13.4377261 -0.123464151,12.3758198 0.371026415,11.5210247 L5.9377434,1.90273585 C6.43223396,1.04794079 7.35412075,0.516724138 8.34363019,0.516724138 L19.4775925,0.516724138 C20.4665736,0.516724138 21.3879321,1.04794079 21.8829509,1.90220885 L27.4501962,11.5210247 C27.9446868,12.3758198 27.9446868,13.4377261 27.4501962,14.2925211 L21.8834792,23.91081 C21.3884604,24.7656051 20.4665736,25.2962947 19.4775925,25.2962947 L8.34363019,25.2962947 Z" id="Fill-1" fill="#F6A623" mask="url(#mask-2)"></path>
                    </g>
                    <path d="M12.4952906,7.29674561 C12.4989887,6.54787768 12.8238943,6.03668705 13.4066113,5.8301028 C14.3575547,5.49282238 15.3206491,6.16685621 15.3238189,7.19029148 C15.3306868,9.62977749 15.3301585,12.0687365 15.3217057,14.5082225 C15.3185358,15.5469408 14.683517,16.1292765 13.7008755,16.0275654 C12.9998189,15.9553663 12.494234,15.3682876 12.4921208,14.6141496 C12.4894792,13.3783331 12.4915925,12.1425166 12.4915925,10.9067001 C12.4937057,9.70355758 12.4894792,8.49988809 12.4952906,7.29674561 Z" id="Fill-4" fill="#F6A623"></path>
                    <path d="M12.4918038,18.4561952 C12.4701434,17.7732023 12.6761811,17.2066766 13.3481811,16.9205153 C14.2948981,16.5178868 15.3007849,17.1755836 15.3272,18.2121939 C15.3414642,18.7676526 15.3351245,19.3299623 14.8543698,19.7357528 C14.3841811,20.1320573 13.8521811,20.1879193 13.3022189,19.949715 C12.7443321,19.7083487 12.5235019,19.2324671 12.4923321,18.6511854 C12.488634,18.5863643 12.4918038,18.5210163 12.4918038,18.4561952" id="Fill-6" fill="#F6A623"></path>
                </g>
            </g>
        </g>
    </g>
</svg>